<svg xmlns="http://www.w3.org/2000/svg" xmlns:xlink="http://www.w3.org/1999/xlink" width="420" height="420" viewBox="0 0 420 420">
  <defs>
    <clipPath id="clip-UOMA_Logo">
      <rect width="420" height="420"/>
    </clipPath>
  </defs>
  <g id="UOMA_Logo" data-name="UOMA Logo" clip-path="url(#clip-UOMA_Logo)">
    <g id="Logo" transform="translate(-62 -92)">
      <path id="Subtraction_3" data-name="Subtraction 3" d="M108.5,212a110.026,110.026,0,0,1-42.234-8.33,108.317,108.317,0,0,1-34.488-22.716A105.545,105.545,0,0,1,8.527,147.261a104.094,104.094,0,0,1,0-82.521A105.545,105.545,0,0,1,31.779,31.046,108.316,108.316,0,0,1,66.267,8.33a111.227,111.227,0,0,1,84.466,0,108.315,108.315,0,0,1,34.488,22.717A105.546,105.546,0,0,1,208.474,64.74a104.094,104.094,0,0,1,0,82.521,105.545,105.545,0,0,1-23.252,33.693,108.316,108.316,0,0,1-34.488,22.716A110.02,110.02,0,0,1,108.5,212Zm0-172.4c-35.382,0-64.168,29.262-64.168,65.231s28.786,65.231,64.168,65.231,64.166-29.262,64.166-65.231S143.882,39.6,108.5,39.6Z" transform="translate(164 159)" fill="#f7eb61"/>
      <rect id="Rectangle_4" data-name="Rectangle 4" width="154" height="40" transform="translate(194 406)" fill="#f7eb61"/>
    </g>
  </g>
</svg>
